<svg version="1.1" xmlns="http://www.w3.org/2000/svg" xmlns:xlink="http://www.w3.org/1999/xlink" width="622" height="628"><defs/><g><g transform="translate(-150,-134) scale(1,1)"><rect fill="#C0C0C0" stroke="none" x="167" y="279" width="344" height="130" opacity="0.2"/></g><g transform="translate(-150,-134) scale(1,1)"><rect fill="#ffffff" stroke="none" x="160" y="272" width="344" height="130"/></g><g transform="translate(-150,-134) scale(1,1)"><path fill="none" stroke="#000000" d="M 160 272 L 504 272 L 504 402 L 160 402 L 160 272 Z Z" stroke-miterlimit="10"/></g><g transform="translate(-150,-134) scale(1,1)"><path fill="none" stroke="#000000" d="M 160 297 L 504 297" stroke-miterlimit="10"/></g><g transform="translate(-150,-134) scale(1,1)"><path fill="none" stroke="#000000" d="M 160 335 L 504 335" stroke-miterlimit="10"/></g><g transform="translate(-150,-134) scale(1,1)"><g><path fill="none" stroke="none"/><text fill="#000000" stroke="none" font-family="Arial" font-size="13px" font-style="normal" font-weight="bold" text-decoration="none" x="272" y="291.5">GithubObjectFactory</text></g></g><g transform="translate(-150,-134) scale(1,1)"><g><path fill="none" stroke="none"/><text fill="#000000" stroke="none" font-family="Arial" font-size="13px" font-style="normal" font-weight="normal" text-decoration="none" x="165" y="314.5">-client: GithubClient</text></g></g><g transform="translate(-150,-134) scale(1,1)"><g><path fill="none" stroke="none"/><text fill="#000000" stroke="none" font-family="Arial" font-size="13px" font-style="normal" font-weight="normal" text-decoration="none" x="165" y="329.5">-connected: boolean</text></g></g><g transform="translate(-150,-134) scale(1,1)"><g><path fill="none" stroke="none"/><text fill="#000000" stroke="none" font-family="Arial" font-size="13px" font-style="normal" font-weight="normal" text-decoration="none" x="165" y="352.5">+get_github_object(url: string): GithubObject</text></g></g><g transform="translate(-150,-134) scale(1,1)"><g><path fill="none" stroke="none"/><text fill="#000000" stroke="none" font-family="Arial" font-size="13px" font-style="normal" font-weight="normal" text-decoration="none" x="165" y="367.5">+GithubObjectFactory(client: GithubClient, conn: boolean)</text></g></g><g transform="translate(-150,-134) scale(1,1)"><g><path fill="none" stroke="none"/><text fill="#000000" stroke="none" font-family="Arial" font-size="13px" font-style="normal" font-weight="normal" text-decoration="none" x="165" y="382.5">-get_github_repo(user: string, repo: string): GithubObject</text></g></g><g transform="translate(-150,-134) scale(1,1)"><g><path fill="none" stroke="none"/><text fill="#000000" stroke="none" font-family="Arial" font-size="13px" font-style="normal" font-weight="normal" text-decoration="none" x="165" y="397.5">-get_github_user(username: string): GithubObject</text></g></g><g transform="translate(-150,-134) scale(1,1)"><rect fill="#C0C0C0" stroke="none" x="215" y="495" width="120" height="70" opacity="0.2"/></g><g transform="translate(-150,-134) scale(1,1)"><rect fill="#ffffff" stroke="none" x="208" y="488" width="120" height="70"/></g><g transform="translate(-150,-134) scale(1,1)"><path fill="none" stroke="#000000" d="M 208 488 L 328 488 L 328 558 L 208 558 L 208 488 Z Z" stroke-miterlimit="10"/></g><g transform="translate(-150,-134) scale(1,1)"><path fill="none" stroke="#000000" d="M 208 526 L 328 526" stroke-miterlimit="10"/></g><g transform="translate(-150,-134) scale(1,1)"><path fill="none" stroke="#000000" d="M 208 536 L 328 536" stroke-miterlimit="10"/></g><g transform="translate(-150,-134) scale(1,1)"><g><path fill="none" stroke="none"/><text fill="#000000" stroke="none" font-family="Arial" font-size="13px" font-style="normal" font-weight="normal" text-decoration="none" x="236" y="505.5">«interface»</text></g></g><g transform="translate(-150,-134) scale(1,1)"><g><path fill="none" stroke="none"/><text fill="#000000" stroke="none" font-family="Arial" font-size="13px" font-style="normal" font-weight="bold" text-decoration="none" x="230" y="520.5">GithubObject</text></g></g><g transform="translate(-150,-134) scale(1,1)"><g><path fill="none" stroke="none"/><text fill="#000000" stroke="none" font-family="Arial" font-size="13px" font-style="normal" font-weight="normal" text-decoration="none" x="213" y="553.5">+print_description()</text></g></g><g transform="translate(-150,-134) scale(1,1)"><rect fill="#C0C0C0" stroke="none" x="495" y="447" width="187" height="100" opacity="0.2"/></g><g transform="translate(-150,-134) scale(1,1)"><rect fill="#ffffff" stroke="none" x="488" y="440" width="187" height="100"/></g><g transform="translate(-150,-134) scale(1,1)"><path fill="none" stroke="#000000" d="M 488 440 L 675 440 L 675 540 L 488 540 L 488 440 Z Z" stroke-miterlimit="10"/></g><g transform="translate(-150,-134) scale(1,1)"><path fill="none" stroke="#000000" d="M 488 465 L 675 465" stroke-miterlimit="10"/></g><g transform="translate(-150,-134) scale(1,1)"><path fill="none" stroke="#000000" d="M 488 488 L 675 488" stroke-miterlimit="10"/></g><g transform="translate(-150,-134) scale(1,1)"><g><path fill="none" stroke="none"/><text fill="#000000" stroke="none" font-family="Arial" font-size="13px" font-style="normal" font-weight="bold" text-decoration="none" x="531.5" y="459.5">GithubRepository</text></g></g><g transform="translate(-150,-134) scale(1,1)"><g><path fill="none" stroke="none"/><text fill="#000000" stroke="none" font-family="Arial" font-size="13px" font-style="normal" font-weight="normal" text-decoration="none" x="493" y="482.5">-repo: Repository</text></g></g><g transform="translate(-150,-134) scale(1,1)"><g><path fill="none" stroke="none"/><text fill="#000000" stroke="none" font-family="Arial" font-size="13px" font-style="normal" font-weight="normal" text-decoration="none" x="493" y="505.5">+print_description()</text></g></g><g transform="translate(-150,-134) scale(1,1)"><g><path fill="none" stroke="none"/><text fill="#000000" stroke="none" font-family="Arial" font-size="13px" font-style="normal" font-weight="normal" text-decoration="none" x="493" y="520.5">+GithubRepository(Repository)</text></g></g><g transform="translate(-150,-134) scale(1,1)"><g><path fill="none" stroke="none"/><text fill="#000000" stroke="none" font-family="Arial" font-size="13px" font-style="normal" font-weight="normal" text-decoration="none" x="493" y="535.5">~get_last_commit(): datetime</text></g></g><g transform="translate(-150,-134) scale(1,1)"><path fill="none" stroke="#000000" d="M 487 500 L 329 517" stroke-miterlimit="10"/></g><g transform="translate(-150,-134) scale(1,1)"><path fill="#FFFFFF" stroke="none" d="M 348.30806417244867 506.4549225743666 L 329 517 L 350.1093588637261 523.1963673521209"/></g><g transform="translate(-150,-134) scale(1,1)"><path fill="none" stroke="#000000" d="M 348.30806417244867 506.4549225743666 L 329 517 L 350.1093588637261 523.1963673521209 L 348.30806417244867 506.4549225743666" stroke-miterlimit="10"/></g><g transform="translate(-150,-134) scale(1,1)"><path fill="none" stroke="#000000" d="M 309 403 L 280 487" stroke-miterlimit="10"/></g><g transform="translate(-150,-134) scale(1,1)"><path fill="none" stroke="#000000" d="M 279.33740081319286 476.01997439357984 L 280 487 L 287.2955221857016 478.76742105789833" stroke-miterlimit="10"/></g><g transform="translate(-150,-134) scale(1,1)"><g><path fill="none" stroke="none"/><text fill="#000000" stroke="none" font-family="Arial" font-size="13px" font-style="normal" font-weight="normal" text-decoration="none" x="283" y="456">+creates</text></g></g><g transform="translate(-150,-134) scale(1,1)"><rect fill="#C0C0C0" stroke="none" x="503" y="551" width="170" height="98" opacity="0.2"/></g><g transform="translate(-150,-134) scale(1,1)"><rect fill="#ffffff" stroke="none" x="496" y="544" width="170" height="98"/></g><g transform="translate(-150,-134) scale(1,1)"><path fill="none" stroke="#000000" d="M 496 544 L 666 544 L 666 642 L 496 642 L 496 544 Z Z" stroke-miterlimit="10"/></g><g transform="translate(-150,-134) scale(1,1)"><path fill="none" stroke="#000000" d="M 496 582 L 666 582" stroke-miterlimit="10"/></g><g transform="translate(-150,-134) scale(1,1)"><path fill="none" stroke="#000000" d="M 496 605 L 666 605" stroke-miterlimit="10"/></g><g transform="translate(-150,-134) scale(1,1)"><g><path fill="none" stroke="none"/><text fill="#000000" stroke="none" font-family="Arial" font-size="13px" font-style="normal" font-weight="normal" text-decoration="none" x="549" y="561.5">«interface»</text></g></g><g transform="translate(-150,-134) scale(1,1)"><g><path fill="none" stroke="none"/><text fill="#000000" stroke="none" font-family="Arial" font-size="13px" font-style="normal" font-weight="bold" text-decoration="none" x="548.5" y="576.5">GithubUser</text></g></g><g transform="translate(-150,-134) scale(1,1)"><g><path fill="none" stroke="none"/><text fill="#000000" stroke="none" font-family="Arial" font-size="13px" font-style="normal" font-weight="normal" text-decoration="none" x="501" y="599.5">-user: NamedUser</text></g></g><g transform="translate(-150,-134) scale(1,1)"><g><path fill="none" stroke="none"/><text fill="#000000" stroke="none" font-family="Arial" font-size="13px" font-style="normal" font-weight="normal" text-decoration="none" x="501" y="622.5">+GithubUser(NamedUser)</text></g></g><g transform="translate(-150,-134) scale(1,1)"><g><path fill="none" stroke="none"/><text fill="#000000" stroke="none" font-family="Arial" font-size="13px" font-style="normal" font-weight="normal" text-decoration="none" x="501" y="637.5">#print_general_information()</text></g></g><g transform="translate(-150,-134) scale(1,1)"><path fill="none" stroke="#000000" d="M 495 574 L 329 537" stroke-miterlimit="10"/></g><g transform="translate(-150,-134) scale(1,1)"><path fill="#FFFFFF" stroke="none" d="M 350.67011364946666 533.2044533438254 L 329 537 L 347.006941089512 549.6392275317301"/></g><g transform="translate(-150,-134) scale(1,1)"><path fill="none" stroke="#000000" d="M 350.67011364946666 533.2044533438254 L 329 537 L 347.006941089512 549.6392275317301 L 350.67011364946666 533.2044533438254" stroke-miterlimit="10"/></g><g transform="translate(-150,-134) scale(1,1)"><rect fill="#C0C0C0" stroke="none" x="351" y="687" width="155" height="72" opacity="0.2"/></g><g transform="translate(-150,-134) scale(1,1)"><rect fill="#ffffff" stroke="none" x="344" y="680" width="155" height="72"/></g><g transform="translate(-150,-134) scale(1,1)"><path fill="none" stroke="#000000" d="M 344 680 L 499 680 L 499 752 L 344 752 L 344 680 Z Z" stroke-miterlimit="10"/></g><g transform="translate(-150,-134) scale(1,1)"><path fill="none" stroke="#000000" d="M 344 705 L 499 705" stroke-miterlimit="10"/></g><g transform="translate(-150,-134) scale(1,1)"><path fill="none" stroke="#000000" d="M 344 715 L 499 715" stroke-miterlimit="10"/></g><g transform="translate(-150,-134) scale(1,1)"><g><path fill="none" stroke="none"/><text fill="#000000" stroke="none" font-family="Arial" font-size="13px" font-style="normal" font-weight="bold" text-decoration="none" x="368.5" y="699.5">GithubHumanUser</text></g></g><g transform="translate(-150,-134) scale(1,1)"><g><path fill="none" stroke="none"/><text fill="#000000" stroke="none" font-family="Arial" font-size="13px" font-style="normal" font-weight="normal" text-decoration="none" x="349" y="732.5">+print_description()</text></g></g><g transform="translate(-150,-134) scale(1,1)"><g><path fill="none" stroke="none"/><text fill="#000000" stroke="none" font-family="Arial" font-size="13px" font-style="normal" font-weight="normal" text-decoration="none" x="349" y="747.5">-print_repos_languages()</text></g></g><g transform="translate(-150,-134) scale(1,1)"><path fill="none" stroke="#000000" d="M 469 679 L 516 643" stroke-miterlimit="10"/></g><g transform="translate(-150,-134) scale(1,1)"><path fill="#FFFFFF" stroke="none" d="M 504.9835698793705 662.0430634982213 L 516 643 L 494.7447282230769 648.6756868913934"/></g><g transform="translate(-150,-134) scale(1,1)"><path fill="none" stroke="#000000" d="M 504.9835698793705 662.0430634982213 L 516 643 L 494.7447282230769 648.6756868913934 L 504.9835698793705 662.0430634982213" stroke-miterlimit="10"/></g><g transform="translate(-150,-134) scale(1,1)"><rect fill="#C0C0C0" stroke="none" x="623" y="687" width="131" height="57" opacity="0.2"/></g><g transform="translate(-150,-134) scale(1,1)"><rect fill="#ffffff" stroke="none" x="616" y="680" width="131" height="57"/></g><g transform="translate(-150,-134) scale(1,1)"><path fill="none" stroke="#000000" d="M 616 680 L 747 680 L 747 737 L 616 737 L 616 680 Z Z" stroke-miterlimit="10"/></g><g transform="translate(-150,-134) scale(1,1)"><path fill="none" stroke="#000000" d="M 616 705 L 747 705" stroke-miterlimit="10"/></g><g transform="translate(-150,-134) scale(1,1)"><path fill="none" stroke="#000000" d="M 616 715 L 747 715" stroke-miterlimit="10"/></g><g transform="translate(-150,-134) scale(1,1)"><g><path fill="none" stroke="none"/><text fill="#000000" stroke="none" font-family="Arial" font-size="13px" font-style="normal" font-weight="bold" text-decoration="none" x="626" y="699.5">GithubOrganization</text></g></g><g transform="translate(-150,-134) scale(1,1)"><g><path fill="none" stroke="none"/><text fill="#000000" stroke="none" font-family="Arial" font-size="13px" font-style="normal" font-weight="normal" text-decoration="none" x="621" y="732.5">+print_description()</text></g></g><g transform="translate(-150,-134) scale(1,1)"><path fill="none" stroke="#000000" d="M 656 679 L 624 643" stroke-miterlimit="10"/></g><g transform="translate(-150,-134) scale(1,1)"><path fill="#FFFFFF" stroke="none" d="M 643.7958929584044 652.5980530306618 L 624 643 L 631.2109617663616 663.7846585346998"/></g><g transform="translate(-150,-134) scale(1,1)"><path fill="none" stroke="#000000" d="M 643.7958929584044 652.5980530306618 L 624 643 L 631.2109617663616 663.7846585346998 L 643.7958929584044 652.5980530306618" stroke-miterlimit="10"/></g><g transform="translate(-150,-134) scale(1,1)"><rect fill="#C0C0C0" stroke="none" x="575" y="223" width="194" height="100" opacity="0.2"/></g><g transform="translate(-150,-134) scale(1,1)"><rect fill="#ffffff" stroke="none" x="568" y="216" width="194" height="100"/></g><g transform="translate(-150,-134) scale(1,1)"><path fill="none" stroke="#000000" d="M 568 216 L 762 216 L 762 316 L 568 316 L 568 216 Z Z" stroke-miterlimit="10"/></g><g transform="translate(-150,-134) scale(1,1)"><path fill="none" stroke="#000000" d="M 568 241 L 762 241" stroke-miterlimit="10"/></g><g transform="translate(-150,-134) scale(1,1)"><path fill="none" stroke="#000000" d="M 568 279 L 762 279" stroke-miterlimit="10"/></g><g transform="translate(-150,-134) scale(1,1)"><g><path fill="none" stroke="none"/><text fill="#000000" stroke="none" font-family="Arial" font-size="13px" font-style="normal" font-weight="bold" text-decoration="none" x="648.5" y="235.5">Client</text></g></g><g transform="translate(-150,-134) scale(1,1)"><g><path fill="none" stroke="none"/><text fill="#000000" stroke="none" font-family="Arial" font-size="13px" font-style="normal" font-weight="normal" text-decoration="none" x="573" y="258.5">-client: GithubClient</text></g></g><g transform="translate(-150,-134) scale(1,1)"><g><path fill="none" stroke="none"/><text fill="#000000" stroke="none" font-family="Arial" font-size="13px" font-style="normal" font-weight="normal" text-decoration="none" x="573" y="273.5">-connected: boolean</text></g></g><g transform="translate(-150,-134) scale(1,1)"><g><path fill="none" stroke="none"/><text fill="#000000" stroke="none" font-family="Arial" font-size="13px" font-style="normal" font-weight="normal" text-decoration="none" x="573" y="296.5">+main(String)</text></g></g><g transform="translate(-150,-134) scale(1,1)"><g><path fill="none" stroke="none"/><text fill="#000000" stroke="none" font-family="Arial" font-size="13px" font-style="normal" font-weight="normal" text-decoration="none" x="573" y="311.5">-get_client(Object): GithubClient</text></g></g><g transform="translate(-150,-134) scale(1,1)"><path fill="none" stroke="#000000" d="M 505 300 L 567 287" stroke-miterlimit="10"/></g><g transform="translate(-150,-134) scale(1,1)"><g><path fill="none" stroke="none"/><text fill="#000000" stroke="none" font-family="Arial" font-size="13px" font-style="normal" font-weight="normal" text-decoration="none" x="512" y="286">+0..1</text></g></g><g transform="translate(-150,-134) scale(1,1)"><g><path fill="none" stroke="none"/><text fill="#000000" stroke="none" font-family="Arial" font-size="13px" font-style="normal" font-weight="normal" text-decoration="none" x="523" y="284">+0..1</text></g></g><g transform="translate(-150,-134) scale(1,1)"><rect fill="#C0C0C0" stroke="none" x="295" y="151" width="158" height="44" opacity="0.2"/></g><g transform="translate(-150,-134) scale(1,1)"><rect fill="#ffffff" stroke="none" x="288" y="144" width="158" height="44"/></g><g transform="translate(-150,-134) scale(1,1)"><path fill="none" stroke="#000000" d="M 288 144 L 446 144 L 446 188 L 288 188 L 288 144 Z Z" stroke-miterlimit="10"/></g><g transform="translate(-150,-134) scale(1,1)"><path fill="none" stroke="#000000" d="M 288 169 L 446 169" stroke-miterlimit="10"/></g><g transform="translate(-150,-134) scale(1,1)"><path fill="none" stroke="#000000" d="M 288 179 L 446 179" stroke-miterlimit="10"/></g><g transform="translate(-150,-134) scale(1,1)"><g><path fill="none" stroke="none"/><text fill="#000000" stroke="none" font-family="Arial" font-size="13px" font-style="normal" font-weight="bold" text-decoration="none" x="297" y="163.5">NotConnectedException</text></g></g></g></svg>